<svg width="391" height="309" viewBox="0 0 391 309" fill="none" xmlns="http://www.w3.org/2000/svg">
<path d="M148.921 138.509C149.553 138.175 150.27 138 151 138V276C150.27 276 149.553 275.825 148.921 275.491L87.0785 242.898C86.4462 242.565 85.9212 242.086 85.5563 241.508C85.1914 240.931 84.9995 240.276 85 239.609V174.404C84.9995 173.737 85.1914 173.082 85.5563 172.505C85.9212 171.927 86.4462 171.448 87.0785 171.114L148.921 138.509Z" fill="#E8F1F5"/>
<path d="M167.079 159.509C166.447 159.175 165.73 159 165 159V297C165.73 297 166.447 296.825 167.079 296.491L228.921 263.898C229.554 263.565 230.079 263.086 230.444 262.508C230.809 261.931 231 261.276 231 260.609V195.404C231 194.737 230.809 194.082 230.444 193.505C230.079 192.927 229.554 192.448 228.921 192.114L167.079 159.509Z" fill="#E8F1F5"/>
<path d="M70.3483 0.592837C71.0437 0.204463 71.8327 0 72.6357 0C73.4388 0 74.2278 0.204463 74.9232 0.592837L142.984 38.6036C143.68 38.9922 144.258 39.5513 144.659 40.2245C145.061 40.8977 145.272 41.6614 145.271 42.4386V118.453C145.272 119.23 145.061 119.994 144.659 120.667C144.258 121.34 143.68 121.899 142.984 122.288L74.9232 160.284C74.2278 160.672 73.4388 160.877 72.6357 160.877C71.8327 160.877 71.0437 160.672 70.3483 160.284L2.2875 122.273C1.59158 121.884 1.01377 121.325 0.612202 120.652C0.210636 119.979 -0.000514269 119.215 9.40581e-07 118.438V42.4386C-0.000514269 41.6614 0.210636 40.8977 0.612202 40.2245C1.01377 39.5513 1.59158 38.9922 2.2875 38.6036L70.3483 0.600213V0.592837Z" fill="#787A91"/>
<path d="M315.348 148.593C316.044 148.204 316.833 148 317.636 148C318.439 148 319.228 148.204 319.923 148.593L387.984 186.604C388.68 186.992 389.258 187.551 389.659 188.224C390.061 188.898 390.272 189.661 390.271 190.439V266.453C390.272 267.23 390.061 267.994 389.659 268.667C389.258 269.34 388.68 269.899 387.984 270.288L319.923 308.284C319.228 308.672 318.439 308.877 317.636 308.877C316.833 308.877 316.044 308.672 315.348 308.284L247.288 270.273C246.592 269.884 246.014 269.325 245.612 268.652C245.211 267.979 244.999 267.215 245 266.438V190.439C244.999 189.661 245.211 188.898 245.612 188.224C246.014 187.551 246.592 186.992 247.288 186.604L315.348 148.6V148.593Z" fill="#787A91"/>
</svg>
