<svg width="188" height="42" viewBox="0 0 188 42" fill="none" xmlns="http://www.w3.org/2000/svg">
<path d="M24.2827 6.04899C24.0878 5.96188 23.8667 5.91602 23.6416 5.91602V42.0005C23.8667 42.0005 24.0878 41.9547 24.2827 41.8675L43.3587 33.3451C43.5537 33.2579 43.7157 33.1325 43.8282 32.9815C43.9408 32.8305 44 32.6592 43.9998 32.4849V15.435C44 15.2606 43.9408 15.0893 43.8282 14.9383C43.7157 14.7873 43.5537 14.6619 43.3587 14.5748L24.2827 6.04899Z" fill="#333333"/>
<path d="M19.7171 0.132973C19.912 0.0458608 20.1331 0 20.3582 0V36.0845C20.1331 36.0845 19.912 36.0386 19.7171 35.9515L0.64114 27.4291C0.446089 27.3419 0.284142 27.2165 0.171593 27.0655C0.059042 26.9145 -0.000137329 26.7432 5.72205e-06 26.5689V9.51895C-0.000137329 9.34462 0.059042 9.17333 0.171593 9.02232C0.284142 8.87132 0.446089 8.74593 0.64114 8.65876L19.7171 0.132973Z" fill="#333333"/>
<path d="M69.6222 13.35H73.1222V20.475C74.1222 19.15 75.5722 18.425 77.2222 18.425C80.9722 18.425 83.2972 21.75 83.2972 25.325C83.2972 28.9 80.8972 32.375 77.0222 32.375C75.3722 32.375 73.8722 31.675 72.9472 30.275L72.8472 32H69.6222V13.35ZM76.3972 21.575C74.3222 21.575 73.0722 23.425 73.0722 25.4C73.0722 27.325 74.2972 29.225 76.3972 29.225C78.4722 29.225 79.7222 27.375 79.7222 25.4C79.7222 23.45 78.5222 21.575 76.3972 21.575ZM85.589 32V13.35H89.089V32H85.589ZM91.3878 25.4C91.3878 21.475 94.3378 18.425 98.3378 18.425C102.263 18.425 105.188 21.375 105.188 25.375C105.188 29.325 102.288 32.375 98.2378 32.375C94.3128 32.375 91.3878 29.375 91.3878 25.4ZM98.2878 21.575C96.2128 21.575 94.9628 23.425 94.9628 25.4C94.9628 27.325 96.1878 29.225 98.2878 29.225C100.363 29.225 101.613 27.375 101.613 25.4C101.613 23.45 100.413 21.575 98.2878 21.575ZM107.11 25.5C107.11 21.7 109.835 18.425 113.835 18.425C116.585 18.425 118.96 20 119.66 22.75L116.335 23.4C115.86 22.3 114.985 21.575 113.76 21.575C111.685 21.575 110.685 23.6 110.685 25.45C110.685 27.275 111.685 29.225 113.76 29.225C114.985 29.225 116.01 28.55 116.46 27.4L119.785 28.05C119.06 30.825 116.535 32.375 113.735 32.375C109.885 32.375 107.11 29.375 107.11 25.5ZM121.893 13.35H125.318V24.175L130.218 18.8H134.318L128.818 24.65L134.918 32H130.493L125.318 25.425V32H121.893V13.35ZM135.469 18.8H137.719V18.05C137.719 15.2 139.719 13.1 142.669 13.1C143.569 13.1 144.494 13.325 145.294 13.75L144.594 16.425C144.119 16.2 143.694 16.05 143.169 16.05C141.744 16.05 141.219 16.95 141.219 18.275V18.8H144.719V21.625H141.219V32H137.719V21.625H135.469V18.8ZM146.673 32V13.35H150.173V32H146.673ZM152.472 25.4C152.472 21.475 155.422 18.425 159.422 18.425C163.347 18.425 166.272 21.375 166.272 25.375C166.272 29.325 163.372 32.375 159.322 32.375C155.397 32.375 152.472 29.375 152.472 25.4ZM159.372 21.575C157.297 21.575 156.047 23.425 156.047 25.4C156.047 27.325 157.272 29.225 159.372 29.225C161.447 29.225 162.697 27.375 162.697 25.4C162.697 23.45 161.497 21.575 159.372 21.575ZM171.432 32L167.057 18.8H170.657L173.132 27.725L175.807 18.8H178.832L181.507 27.75L184.032 18.8H187.507L183.132 32H179.907L177.257 23.075L174.607 32H171.432Z" fill="#333333"/>
</svg>
