<svg width="30" height="30" viewBox="0 0 30 30" fill="none" xmlns="http://www.w3.org/2000/svg">
<path d="M13.7625 3.81251C8.1375 4.42501 3.75 9.20001 3.75 15C3.75 17.9837 4.93526 20.8452 7.04505 22.955C9.15483 25.0647 12.0163 26.25 15 26.25C20.7875 26.25 25.5625 21.875 26.1875 16.25C26.3 15.2625 25.2125 14.475 24.2625 15.0625C23.2421 15.7138 22.0654 16.0789 20.8555 16.1196C19.6456 16.1602 18.447 15.8749 17.3852 15.2935C16.3234 14.7121 15.4374 13.8561 14.8198 12.8148C14.2023 11.7736 13.876 10.5856 13.875 9.37501C13.875 8.05001 14.2625 6.80001 14.925 5.76251C15.4875 4.92501 14.875 3.72501 13.7625 3.81251Z" fill="#444444"/>
</svg>
