<svg width="28" height="28" viewBox="0 0 28 28" fill="none" xmlns="http://www.w3.org/2000/svg">
<path d="M14 7.75C10.55 7.75 7.75 10.55 7.75 14C7.75 17.45 10.55 20.25 14 20.25C17.45 20.25 20.25 17.45 20.25 14C20.25 10.55 17.45 7.75 14 7.75ZM1.5 15.25H4C4.6875 15.25 5.25 14.6875 5.25 14C5.25 13.3125 4.6875 12.75 4 12.75H1.5C0.8125 12.75 0.25 13.3125 0.25 14C0.25 14.6875 0.8125 15.25 1.5 15.25ZM24 15.25H26.5C27.1875 15.25 27.75 14.6875 27.75 14C27.75 13.3125 27.1875 12.75 26.5 12.75H24C23.3125 12.75 22.75 13.3125 22.75 14C22.75 14.6875 23.3125 15.25 24 15.25ZM12.75 1.5V4C12.75 4.6875 13.3125 5.25 14 5.25C14.6875 5.25 15.25 4.6875 15.25 4V1.5C15.25 0.8125 14.6875 0.25 14 0.25C13.3125 0.25 12.75 0.8125 12.75 1.5ZM12.75 24V26.5C12.75 27.1875 13.3125 27.75 14 27.75C14.6875 27.75 15.25 27.1875 15.25 26.5V24C15.25 23.3125 14.6875 22.75 14 22.75C13.3125 22.75 12.75 23.3125 12.75 24ZM6.4875 4.725C6.37186 4.60912 6.2345 4.51719 6.08328 4.45446C5.93206 4.39173 5.76996 4.35945 5.60625 4.35945C5.44254 4.35945 5.28044 4.39173 5.12922 4.45446C4.978 4.51719 4.84064 4.60912 4.725 4.725C4.60912 4.84064 4.51719 4.978 4.45446 5.12922C4.39173 5.28044 4.35945 5.44254 4.35945 5.60625C4.35945 5.76996 4.39173 5.93206 4.45446 6.08328C4.51719 6.2345 4.60912 6.37186 4.725 6.4875L6.05 7.8125C6.5375 8.3 7.3375 8.3 7.8125 7.8125C8.2875 7.325 8.3 6.525 7.8125 6.05L6.4875 4.725ZM21.95 20.1875C21.8344 20.0716 21.697 19.9797 21.5458 19.917C21.3946 19.8542 21.2325 19.8219 21.0688 19.8219C20.905 19.8219 20.7429 19.8542 20.5917 19.917C20.4405 19.9797 20.3031 20.0716 20.1875 20.1875C20.0716 20.3031 19.9797 20.4405 19.917 20.5917C19.8542 20.7429 19.8219 20.905 19.8219 21.0688C19.8219 21.2325 19.8542 21.3946 19.917 21.5458C19.9797 21.697 20.0716 21.8344 20.1875 21.95L21.5125 23.275C22 23.7625 22.8 23.7625 23.275 23.275C23.3909 23.1594 23.4828 23.022 23.5455 22.8708C23.6083 22.7196 23.6406 22.5575 23.6406 22.3937C23.6406 22.23 23.6083 22.0679 23.5455 21.9167C23.4828 21.7655 23.3909 21.6281 23.275 21.5125L21.95 20.1875ZM23.275 6.4875C23.3909 6.37186 23.4828 6.2345 23.5455 6.08328C23.6083 5.93206 23.6406 5.76996 23.6406 5.60625C23.6406 5.44254 23.6083 5.28044 23.5455 5.12922C23.4828 4.978 23.3909 4.84064 23.275 4.725C23.1594 4.60912 23.022 4.51719 22.8708 4.45446C22.7196 4.39173 22.5575 4.35945 22.3937 4.35945C22.23 4.35945 22.0679 4.39173 21.9167 4.45446C21.7655 4.51719 21.6281 4.60912 21.5125 4.725L20.1875 6.05C19.7 6.5375 19.7 7.3375 20.1875 7.8125C20.675 8.2875 21.475 8.3 21.95 7.8125L23.275 6.4875ZM7.8125 21.95C7.92838 21.8344 8.02031 21.697 8.08304 21.5458C8.14577 21.3946 8.17805 21.2325 8.17805 21.0688C8.17805 20.905 8.14577 20.7429 8.08304 20.5917C8.02031 20.4405 7.92838 20.3031 7.8125 20.1875C7.69686 20.0716 7.5595 19.9797 7.40828 19.917C7.25706 19.8542 7.09496 19.8219 6.93125 19.8219C6.76754 19.8219 6.60544 19.8542 6.45422 19.917C6.303 19.9797 6.16564 20.0716 6.05 20.1875L4.725 21.5125C4.2375 22 4.2375 22.8 4.725 23.275C5.2125 23.75 6.0125 23.7625 6.4875 23.275L7.8125 21.95Z" fill="white"/>
</svg>
